HIERARCHY
ROOT Hips
{
	OFFSET 0.00000 0.00000 0.00000
	CHANNELS 6 Xposition Yposition Zposition Zrotation Yrotation Xrotation 
	JOINT LHipJoint
	{
		OFFSET 0 0 0
		CHANNELS 3 Zrotation Yrotation Xrotation
		JOINT LeftUpLeg
		{
			OFFSET 1.28858 -1.83292 1.03970
			CHANNELS 3 Zrotation Yrotation Xrotation
			JOINT LeftLeg
			{
				OFFSET 2.47846 -6.80952 0.00000
				CHANNELS 3 Zrotation Yrotation Xrotation
				JOINT LeftFoot
				{
					OFFSET 2.75274 -7.56311 0.00000
					CHANNELS 3 Zrotation Yrotation Xrotation
					JOINT LeftToeBase
					{
						OFFSET 0.12848 -0.35301 1.68223
						CHANNELS 3 Zrotation Yrotation Xrotation
						End Site
						{
							OFFSET 0.00000 -0.00000 0.87311
						}
					}
				}
			}
		}
	}
	JOINT RHipJoint
	{
		OFFSET 0 0 0
		CHANNELS 3 Zrotation Yrotation Xrotation
		JOINT RightUpLeg
		{
			OFFSET -1.31183 -1.83292 1.03970
			CHANNELS 3 Zrotation Yrotation Xrotation
			JOINT RightLeg
			{
				OFFSET -2.44740 -6.72417 0.00000
				CHANNELS 3 Zrotation Yrotation Xrotation
				JOINT RightFoot
				{
					OFFSET -2.67343 -7.34519 0.00000
					CHANNELS 3 Zrotation Yrotation Xrotation
					JOINT RightToeBase
					{
						OFFSET -0.16914 -0.46471 1.77626
						CHANNELS 3 Zrotation Yrotation Xrotation
						End Site
						{
							OFFSET -0.00000 -0.00000 0.92777
						}
					}
				}
			}
		}
	}
	JOINT LowerBack
	{
		OFFSET 0 0 0
		CHANNELS 3 Zrotation Yrotation Xrotation
		JOINT Spine
		{
			OFFSET 0.01249 2.14252 0.03842
			CHANNELS 3 Zrotation Yrotation Xrotation
			JOINT Spine1
			{
				OFFSET -0.02957 2.14199 -0.03751
				CHANNELS 3 Zrotation Yrotation Xrotation
				JOINT Neck
				{
					OFFSET 0 0 0
					CHANNELS 3 Zrotation Yrotation Xrotation
					JOINT Neck1
					{
						OFFSET -0.01678 1.65709 -0.05476
						CHANNELS 3 Zrotation Yrotation Xrotation
						JOINT Head
						{
							OFFSET 0.07912 1.58331 -0.11843
							CHANNELS 3 Zrotation Yrotation Xrotation
							End Site
							{
								OFFSET 0.03298 1.73940 -0.04271
							}
						}
					}
				}
				JOINT LeftShoulder
				{
					OFFSET 0 0 0
					CHANNELS 3 Zrotation Yrotation Xrotation
					JOINT LeftArm
					{
						OFFSET 3.39556 1.16496 0.08673
						CHANNELS 3 Zrotation Yrotation Xrotation
						JOINT LeftForeArm
						{
							OFFSET 5.23910 -0.00000 -0.00000
							CHANNELS 3 Zrotation Yrotation Xrotation
							JOINT LeftHand
							{
								OFFSET 3.31467 -0.00000 0.00000
								CHANNELS 3 Zrotation Yrotation Xrotation
								JOINT LeftFingerBase
								{
									OFFSET 0 0 0
									CHANNELS 3 Zrotation Yrotation Xrotation
									JOINT LeftHandIndex1
									{
										OFFSET 0.96590 -0.00000 0.00000
										CHANNELS 3 Zrotation Yrotation Xrotation
										End Site
										{
											OFFSET 0.77873 -0.00000 0.00000
										}
									}
								}
								JOINT LThumb
								{
									OFFSET 0 0 0
									CHANNELS 3 Zrotation Yrotation Xrotation
									End Site
									{
										OFFSET 0.79062 -0.00000 0.79062
									}
								}
							}
						}
					}
				}
				JOINT RightShoulder
				{
					OFFSET 0 0 0
					CHANNELS 3 Zrotation Yrotation Xrotation
					JOINT RightArm
					{
						OFFSET -3.27193 1.31331 0.33940
						CHANNELS 3 Zrotation Yrotation Xrotation
						JOINT RightForeArm
						{
							OFFSET -5.30252 -0.00000 0.00000
							CHANNELS 3 Zrotation Yrotation Xrotation
							JOINT RightHand
							{
								OFFSET -3.67875 -0.00000 0.00000
								CHANNELS 3 Zrotation Yrotation Xrotation
								JOINT RightFingerBase
								{
									OFFSET 0 0 0
									CHANNELS 3 Zrotation Yrotation Xrotation
									JOINT RightHandIndex1
									{
										OFFSET -0.59481 -0.00000 0.00000
										CHANNELS 3 Zrotation Yrotation Xrotation
										End Site
										{
											OFFSET -0.47955 -0.00000 0.00000
										}
									}
								}
								JOINT RThumb
								{
									OFFSET 0 0 0
									CHANNELS 3 Zrotation Yrotation Xrotation
									End Site
									{
										OFFSET -0.48687 -0.00000 0.48687
									}
								}
							}
						}
					}
				}
			}
		}
	}
}
MOTION
Frames: 7
Frame Time: 0.025974
0.00 0.00 0.00 0 0 0 0 0 0 -21 0 0 0 0 0 0 0 0 0 0 0 0 0 0 21 0 0 0 0 0 0 0 0 0 0 0 0 0 0 0 0 0 0 0 0 0 0 -16 0 0 21 0 0 11 0 0 0 -8 0 0 0 0 0 0 0 0 0 0 0 0 0 0 0 0 0 0 0 0 8 0 0 0 0 0 0 0 0 0 0 0 0 0 0 0 0 0
0.00 0.00 0.00 2.0848 2.7914 20.4895 0.0000 0.0000 0.0000 -17.8379 -16.2623 -34.3949 1.0391 6.4831 18.1927 0.0104 -1.9967 -2.1431 4.3331 12.5909 37.8558 0.0000 0.0000 0.0000 13.7694 13.6819 -33.9930 -1.0015 -6.3683 17.8568 -0.0602 -11.1180 -16.6740 -1.2817 -7.1743 20.2327 -0.1165 -0.4407 11.6283 -1.0100 -0.6055 5.1573 -0.9062 -0.2882 -1.1465 -2.0646 -1.6060 0.8000 1.5271 -2.2045 8.5020 0.7953 -1.1094 2.5944 -0.0000 0.0000 0.0000 -76.5354 -17.6788 56.9194 13.7608 -22.3917 -2.7363 -0.0000 0.0000 -13.8088 16.7074 -12.5531 -3.7325 -7.1250 0.0000 -0.0000 -7.3122 16.9589 4.9017 -0.0000 0.0000 0.0000 80.0233 8.4963 37.6388 -17.1447 27.0481 -4.1529 0.0000 0.0000 3.4789 -12.2228 -38.7968 7.7294 7.1250 -0.0000 -0.0000 30.8404 -66.9832 -16.9847
0.00 0.00 0.00 2.5890 1.8001 28.7756 0.0000 0.0000 0.0000 -13.3393 -19.8567 -57.0814 3.2180 11.0398 32.4143 -0.0080 -2.9074 -1.5346 4.6537 12.9829 39.3045 0.0000 0.0000 0.0000 7.2170 17.5199 -57.0902 -3.1707 -10.9664 32.1668 0.0354 -10.2525 -14.0238 -0.4237 -4.1777 11.5771 -0.5867 -0.1272 17.9027 -1.0771 -0.2792 7.7770 -0.7497 -0.1238 -1.7108 -1.2263 -1.9784 1.0795 0.8239 -2.6479 0.0615 0.4583 -1.3249 -0.1292 0.0000 0.0000 0.0000 -72.1228 -26.3295 63.2125 12.4476 -20.4725 -2.2564 -0.0000 0.0000 -9.5923 19.5473 -12.1745 -4.2821 -7.1250 0.0000 -0.0000 -5.3340 17.1198 3.5430 0.0000 0.0000 0.0000 75.1494 16.3831 41.3879 -16.5643 26.2798 -3.8925 0.0000 0.0000 7.0959 -13.5507 -39.6769 8.7479 7.1250 -0.0000 -0.0000 30.6876 -68.1119 -17.6663
0.00 0.00 0.00 2.8180 1.6702 32.9439 0.0000 0.0000 0.0000 -8.2005 -22.4772 -75.5368 6.9943 15.3271 48.8529 -0.0747 -5.6641 -1.0661 5.3339 13.7502 42.2460 0.0000 0.0000 0.0000 0.2216 18.7106 -76.6096 -7.0699 -15.3904 49.1381 -0.1149 -7.2548 -12.6242 -0.0001 0.0759 -0.2085 -0.4079 -0.2109 23.3348 -1.0393 -0.3858 9.0104 -0.7872 -0.1647 -3.1326 -1.0402 -2.1490 -0.0989 0.3659 -2.8871 -4.2463 0.3152 -1.4394 -1.2653 -0.0000 -0.0000 0.0000 -70.2657 -32.3911 62.0062 10.2344 -17.1054 -1.5432 -0.0000 0.0000 -5.0372 25.7910 -10.5721 -5.0665 -7.1250 0.0000 -0.0000 -0.8941 18.2696 0.5688 -0.0000 -0.0000 0.0000 72.3298 22.3971 38.9857 -14.6486 23.6543 -3.0836 0.0000 0.0000 12.5879 -16.3798 -41.6785 11.0591 7.1250 -0.0000 -0.0000 30.8572 -70.6537 -19.4830
0.00 0.00 0.00 4.0203 4.0458 29.4628 0.0000 0.0000 0.0000 -7.0546 -24.6035 -83.8943 11.3963 18.1236 64.0620 -0.1878 -8.6870 -1.1979 5.0261 13.4132 40.9355 0.0000 0.0000 0.0000 0.3425 15.5966 -85.1106 -11.2515 -18.0560 63.5956 -0.3407 -7.5704 -16.3080 -0.0917 -1.9529 5.3756 -0.3133 -0.6770 33.8160 -0.6454 -0.9160 10.0581 -0.1964 -0.3862 -6.1614 0.1180 -2.6649 -1.3005 -0.0253 -3.6026 -6.0666 0.0115 -1.8167 -1.6600 -0.0000 0.0000 0.0000 -69.1654 -35.7835 62.3788 10.0205 -16.7716 -1.4809 -0.0000 0.0000 -6.8323 29.0814 -8.6378 -4.7748 -7.1250 0.0000 -0.0000 1.5676 20.1207 -0.9330 -0.0000 0.0000 0.0000 70.4711 24.8077 35.2887 -13.4482 21.9403 -2.6184 0.0000 0.0000 14.7226 -19.7795 -42.2882 13.6026 7.1250 -0.0000 -0.0000 28.0305 -72.3127 -18.6011
0.00 0.00 0.00 4.5262 4.3329 25.1284 0.0000 0.0000 0.0000 -5.8622 -25.2892 -90.4113 15.6806 19.5467 77.2785 -0.2235 -10.1764 -2.4886 5.0217 13.4082 40.9164 0.0000 0.0000 0.0000 -1.3597 15.5683 -91.8913 -15.6166 -19.5329 77.0871 -0.6614 -9.0451 -21.2067 -0.1976 -2.8624 7.8959 -0.8518 -0.3227 40.6363 -0.6387 -0.6786 10.8473 0.0243 -0.2509 -7.4599 -0.2797 -2.9941 -1.5712 1.0174 -4.0007 -7.1682 0.4133 -2.0320 -1.9379 0.0000 -0.0000 0.0000 -68.4808 -36.9148 66.1487 10.1675 -17.0011 -1.5235 -0.0000 0.0000 -6.3716 29.8020 -9.2013 -5.2328 -7.1250 0.0000 -0.0000 2.0383 19.4093 -1.2459 0.0000 -0.0000 0.0000 69.8486 25.7606 32.5824 -12.2448 20.1708 -2.1860 0.0000 0.0000 18.1555 -20.9119 -42.5556 14.4892 7.1250 -0.0000 -0.0000 27.1817 -72.9328 -18.3714
0.00 0.00 0.00 4.4960 4.2969 24.1370 0.0000 0.0000 0.0000 -5.7015 -25.2194 -91.2966 16.5550 19.7131 79.8812 0.8533 -6.2538 -16.4728 5.4534 13.8768 42.7463 0.0000 0.0000 0.0000 -1.5657 15.7607 -92.5848 -16.2696 -19.6630 79.0339 -0.6632 -9.6958 -21.8128 -0.1497 -2.4932 6.8708 -1.0070 -0.2419 41.7806 -0.6618 -0.6514 10.9918 0.0705 -0.2346 -7.6403 -0.3899 -2.9783 -1.7169 1.2932 -3.9638 -7.1388 0.5137 -2.0163 -1.8953 0.0000 -0.0000 0.0000 -68.5912 -36.9856 65.9038 10.0442 -16.8087 -1.4877 -0.0000 0.0000 -5.9016 29.7870 -9.3417 -5.3083 -7.1250 0.0000 -0.0000 2.0164 19.2504 -1.2396 0.0000 -0.0000 0.0000 69.8812 25.8268 32.8136 -12.1237 19.9900 -2.1444 0.0000 0.0000 18.2743 -21.0437 -42.6984 14.6229 7.1250 -0.0000 -0.0000 27.3104 -73.0978 -18.5570
